<svg xmlns="http://www.w3.org/2000/svg" width="407" height="314" fill="none" viewBox="0 0 407 314">
  <path fill="url(#paint0_linear)" d="M61.26 64.34V71h-28.8v-6.66h10.548V33.992c0-1.2.036-2.436.108-3.708l-7.488 6.264c-.432.336-.864.552-1.296.648a3.293 3.293 0 01-1.188 0 3.133 3.133 0 01-.972-.36c-.288-.192-.504-.396-.648-.612l-2.808-3.852 15.876-13.5H51.9V64.34h9.36zm7.602 1.764c0-.744.132-1.452.396-2.124a5.448 5.448 0 011.152-1.728 5.448 5.448 0 011.728-1.152 5.425 5.425 0 012.16-.432 5.17 5.17 0 012.124.432 5.448 5.448 0 011.728 1.152c.504.48.9 1.056 1.188 1.728.288.672.432 1.38.432 2.124 0 .768-.144 1.488-.432 2.16a5.264 5.264 0 01-1.188 1.692 4.99 4.99 0 01-1.728 1.116 5.17 5.17 0 01-2.124.432 5.425 5.425 0 01-2.16-.432 4.99 4.99 0 01-1.728-1.116 5.562 5.562 0 01-1.152-1.692 5.854 5.854 0 01-.396-2.16z"/>
  <path fill="url(#paint1_linear)" d="M300.316 173.72c.96 0 1.716.276 2.268.828.576.528.864 1.236.864 2.124V182h-35.712v-2.952c0-.6.12-1.224.36-1.872a5.008 5.008 0 011.224-1.8l15.804-15.84a69.16 69.16 0 003.528-3.852c1.056-1.224 1.932-2.436 2.628-3.636a16.56 16.56 0 001.584-3.636c.384-1.248.576-2.556.576-3.924 0-1.248-.18-2.34-.54-3.276-.36-.96-.876-1.764-1.548-2.412-.648-.648-1.44-1.128-2.376-1.44-.912-.336-1.944-.504-3.096-.504-1.056 0-2.04.156-2.952.468a7.52 7.52 0 00-2.376 1.26 7.688 7.688 0 00-1.764 1.872c-.48.72-.84 1.512-1.08 2.376-.408 1.104-.936 1.836-1.584 2.196-.648.36-1.584.444-2.808.252l-4.68-.828c.36-2.496 1.056-4.68 2.088-6.552 1.032-1.896 2.316-3.468 3.852-4.716 1.56-1.272 3.336-2.22 5.328-2.844 2.016-.648 4.176-.972 6.48-.972 2.4 0 4.596.36 6.588 1.08 1.992.696 3.696 1.692 5.112 2.988s2.52 2.856 3.312 4.68c.792 1.824 1.188 3.852 1.188 6.084 0 1.92-.288 3.696-.864 5.328a21.048 21.048 0 01-2.268 4.68 30.437 30.437 0 01-3.312 4.32 207.93 207.93 0 01-3.996 4.248l-11.736 11.988a24.787 24.787 0 013.348-.756 19.127 19.127 0 013.204-.288h13.356zm9.546 3.384c0-.744.132-1.452.396-2.124a5.448 5.448 0 011.152-1.728 5.448 5.448 0 011.728-1.152 5.425 5.425 0 012.16-.432 5.17 5.17 0 012.124.432 5.448 5.448 0 011.728 1.152c.504.48.9 1.056 1.188 1.728.288.672.432 1.38.432 2.124 0 .768-.144 1.488-.432 2.16a5.264 5.264 0 01-1.188 1.692 4.99 4.99 0 01-1.728 1.116 5.17 5.17 0 01-2.124.432 5.425 5.425 0 01-2.16-.432 4.99 4.99 0 01-1.728-1.116 5.562 5.562 0 01-1.152-1.692 5.854 5.854 0 01-.396-2.16z"/>
  <path fill="url(#paint2_linear)" d="M62.888 260.452c.36-2.496 1.056-4.68 2.088-6.552 1.032-1.896 2.316-3.468 3.852-4.716 1.56-1.272 3.336-2.22 5.328-2.844 2.016-.648 4.176-.972 6.48-.972 2.4 0 4.56.348 6.48 1.044 1.944.672 3.6 1.62 4.968 2.844a12.081 12.081 0 013.132 4.248c.744 1.632 1.116 3.396 1.116 5.292 0 1.656-.192 3.12-.576 4.392-.36 1.248-.888 2.34-1.584 3.276a9.462 9.462 0 01-2.592 2.376c-1.032.648-2.196 1.188-3.492 1.62 3.12.984 5.448 2.484 6.984 4.5 1.536 2.016 2.304 4.548 2.304 7.596 0 2.592-.48 4.884-1.44 6.876s-2.256 3.672-3.888 5.04c-1.632 1.344-3.528 2.364-5.688 3.06-2.136.696-4.404 1.044-6.804 1.044-2.616 0-4.896-.3-6.84-.9-1.944-.6-3.636-1.488-5.076-2.664-1.44-1.176-2.664-2.616-3.672-4.32-1.008-1.704-1.872-3.672-2.592-5.904l3.924-1.62c1.032-.432 1.992-.54 2.88-.324.912.192 1.572.672 1.98 1.44.432.84.9 1.668 1.404 2.484a10.928 10.928 0 001.872 2.196c.72.624 1.56 1.14 2.52 1.548.984.384 2.148.576 3.492.576 1.512 0 2.832-.24 3.96-.72 1.128-.504 2.064-1.152 2.808-1.944.768-.792 1.332-1.668 1.692-2.628a8.069 8.069 0 00.576-2.952c0-1.248-.132-2.376-.396-3.384-.264-1.032-.816-1.908-1.656-2.628-.84-.72-2.052-1.284-3.636-1.692-1.56-.408-3.66-.612-6.3-.612v-6.336c2.184-.024 3.996-.228 5.436-.612s2.58-.912 3.42-1.584c.864-.696 1.464-1.524 1.8-2.484.336-.96.504-2.016.504-3.168 0-2.448-.684-4.308-2.052-5.58-1.368-1.272-3.192-1.908-5.472-1.908-1.056 0-2.028.156-2.916.468a7.975 7.975 0 00-2.412 1.26 7.688 7.688 0 00-1.764 1.872c-.48.72-.84 1.512-1.08 2.376-.408 1.104-.948 1.836-1.62 2.196-.648.36-1.572.444-2.772.252l-4.68-.828zm40.974 32.652c0-.744.132-1.452.396-2.124a5.448 5.448 0 011.152-1.728 5.448 5.448 0 011.728-1.152 5.425 5.425 0 012.16-.432 5.17 5.17 0 012.124.432 5.448 5.448 0 011.728 1.152c.504.48.9 1.056 1.188 1.728.288.672.432 1.38.432 2.124 0 .768-.144 1.488-.432 2.16a5.264 5.264 0 01-1.188 1.692 4.99 4.99 0 01-1.728 1.116 5.17 5.17 0 01-2.124.432 5.425 5.425 0 01-2.16-.432 4.99 4.99 0 01-1.728-1.116 5.562 5.562 0 01-1.152-1.692 5.854 5.854 0 01-.396-2.16z"/>
  <path fill="#000" d="M354.589 142.492a1.499 1.499 0 00.903 1.919l12.702 4.573a1.5 1.5 0 101.016-2.823l-11.291-4.064 4.065-11.291a1.5 1.5 0 10-2.823-1.016l-4.572 12.702zm17.772-8.849l-17 8 1.278 2.714 17-8-1.278-2.714z"/>
  <path fill="url(#paint3_radial)" d="M101.264 24.2c1.488 0 2.776.248 3.864.744 1.104.496 1.952 1.2 2.544 2.112.592.912.888 1.992.888 3.24 0 1.232-.296 2.312-.888 3.24-.592.912-1.44 1.616-2.544 2.112-1.088.48-2.376.72-3.864.72H97.88V41h-3.888V24.2h7.272zm-.216 9c1.168 0 2.056-.248 2.664-.744.608-.512.912-1.232.912-2.16 0-.944-.304-1.664-.912-2.16-.608-.512-1.496-.768-2.664-.768H97.88V33.2h3.168zm13.6-3.408c.448-.624 1.048-1.096 1.8-1.416.768-.32 1.648-.48 2.64-.48v3.456a13.512 13.512 0 00-.84-.048c-1.072 0-1.912.304-2.52.912-.608.592-.912 1.488-.912 2.688V41h-3.744V28.088h3.576v1.704zm17.392 8.328V41h-11.52v-2.256l6.576-7.776h-6.408v-2.88h11.136v2.256l-6.576 7.776h6.792zm14.981-10.032l-5.832 13.704c-.592 1.488-1.328 2.536-2.208 3.144-.864.608-1.912.912-3.144.912a6.555 6.555 0 01-1.992-.312c-.656-.208-1.192-.496-1.608-.864l1.368-2.664c.288.256.616.456.984.6a3.2 3.2 0 001.128.216c.512 0 .928-.128 1.248-.384.32-.24.608-.648.864-1.224l.048-.12-5.592-13.008h3.864l3.624 8.76 3.648-8.76h3.6zm1.839-4.896h3.744V41h-3.744V23.192zm-2.712 11.064l7.776-5.856 1.368 1.92-7.752 5.808-1.392-1.872zm16.396 6.936c-1.36 0-2.584-.28-3.672-.84a6.439 6.439 0 01-2.52-2.376c-.608-1.008-.912-2.152-.912-3.432 0-1.28.304-2.424.912-3.432a6.27 6.27 0 012.52-2.352c1.088-.576 2.312-.864 3.672-.864 1.36 0 2.576.288 3.648.864a6.27 6.27 0 012.52 2.352c.608 1.008.912 2.152.912 3.432 0 1.28-.304 2.424-.912 3.432a6.439 6.439 0 01-2.52 2.376c-1.072.56-2.288.84-3.648.84zm0-3.072c.96 0 1.744-.32 2.352-.96.624-.656.936-1.528.936-2.616s-.312-1.952-.936-2.592c-.608-.656-1.392-.984-2.352-.984s-1.752.328-2.376.984c-.624.64-.936 1.504-.936 2.592s.312 1.96.936 2.616c.624.64 1.416.96 2.376.96zm1.008-15.144h4.032l-4.344 3.456h-2.928l3.24-3.456zm19.042 15.144V41h-11.52v-2.256l6.576-7.776h-6.408v-2.88h11.136v2.256l-6.576 7.776h6.792zm-5.76-11.808c-.592 0-1.08-.192-1.464-.576-.368-.384-.552-.872-.552-1.464 0-.576.184-1.056.552-1.44.384-.384.872-.576 1.464-.576s1.072.192 1.44.576c.384.384.576.864.576 1.44 0 .592-.192 1.08-.576 1.464-.368.384-.848.576-1.44.576zm20.501 9.624l-1.8 1.776V41h-3.744V23.192h3.744v10.08l5.472-5.184h4.464l-5.376 5.472 5.856 7.44h-4.536l-4.08-5.064zm15.273-8.04c2 0 3.536.48 4.608 1.44 1.072.944 1.608 2.376 1.608 4.296V41h-3.504v-1.608c-.704 1.2-2.016 1.8-3.936 1.8-.992 0-1.856-.168-2.592-.504-.72-.336-1.272-.8-1.656-1.392-.384-.592-.576-1.264-.576-2.016 0-1.2.448-2.144 1.344-2.832.912-.688 2.312-1.032 4.2-1.032h2.976c0-.816-.248-1.44-.744-1.872-.496-.448-1.24-.672-2.232-.672-.688 0-1.368.112-2.04.336-.656.208-1.216.496-1.68.864l-1.344-2.616c.704-.496 1.544-.88 2.52-1.152a11.474 11.474 0 013.048-.408zm-.288 10.776c.64 0 1.208-.144 1.704-.432a2.486 2.486 0 001.056-1.32V35.6h-2.568c-1.536 0-2.304.504-2.304 1.512 0 .48.184.864.552 1.152.384.272.904.408 1.56.408zm13.468-8.88c.448-.624 1.048-1.096 1.8-1.416.768-.32 1.648-.48 2.64-.48v3.456a13.512 13.512 0 00-.84-.048c-1.072 0-1.912.304-2.52.912-.608.592-.912 1.488-.912 2.688V41h-3.744V28.088h3.576v1.704zm15.44 10.584c-.368.272-.824.48-1.368.624a7.111 7.111 0 01-1.68.192c-1.536 0-2.728-.392-3.576-1.176-.832-.784-1.248-1.936-1.248-3.456v-5.304h-1.992v-2.88h1.992v-3.144h3.744v3.144h3.216v2.88H237.1v5.256c0 .544.136.968.408 1.272.288.288.688.432 1.2.432.592 0 1.096-.16 1.512-.48l1.008 2.64zm14.351-5.784c0 .048-.024.384-.072 1.008h-9.768c.176.8.592 1.432 1.248 1.896.656.464 1.472.696 2.448.696.672 0 1.264-.096 1.776-.288a4.46 4.46 0 001.464-.96l2.016 2.16c-.32.336-.648.624-.984.864-1.008.736-1.704 1.376-2.088 1.92-.384.544-.576 1.064-.576 1.56 0 .384.12.68.36.888.256.224.6.336 1.032.336.512 0 .984-.12 1.416-.36l.552 1.704a4.42 4.42 0 01-1.128.384 5.146 5.146 0 01-1.296.168c-1.024 0-1.832-.256-2.424-.768-.592-.496-.888-1.168-.888-2.016 0-.448.096-.904.288-1.368.208-.448.504-.864.888-1.248-.112.016-.28.024-.504.024-1.456 0-2.744-.28-3.864-.84-1.12-.576-1.984-1.368-2.592-2.376-.608-1.008-.912-2.152-.912-3.432 0-1.264.296-2.4.888-3.408a6.3 6.3 0 012.472-2.376c1.056-.576 2.232-.864 3.528-.864 1.264 0 2.408.272 3.432.816a5.857 5.857 0 012.4 2.352c.592 1.008.888 2.184.888 3.528zm-6.696-3.864c-.848 0-1.56.24-2.136.72-.576.48-.928 1.136-1.056 1.968h6.36c-.128-.816-.48-1.464-1.056-1.944-.576-.496-1.28-.744-2.112-.744zM93.728 52.192h3.744V70h-3.744V52.192zm20.227 4.896V70h-3.552v-1.536a5.096 5.096 0 01-1.776 1.296 5.722 5.722 0 01-2.232.432c-1.696 0-3.04-.488-4.032-1.464s-1.488-2.424-1.488-4.344v-7.296h3.744v6.744c0 2.08.872 3.12 2.616 3.12.896 0 1.616-.288 2.16-.864.544-.592.816-1.464.816-2.616v-6.384h3.744zm11.1-.192c1.2 0 2.288.28 3.264.84a5.821 5.821 0 012.328 2.328c.56.992.84 2.152.84 3.48 0 1.328-.28 2.496-.84 3.504a6.028 6.028 0 01-2.328 2.328c-.976.544-2.064.816-3.264.816-1.776 0-3.128-.56-4.056-1.68V70h-3.576V52.192h3.744v6.264c.944-1.04 2.24-1.56 3.888-1.56zm-.648 10.224c.96 0 1.744-.32 2.352-.96.624-.656.936-1.528.936-2.616s-.312-1.952-.936-2.592c-.608-.656-1.392-.984-2.352-.984s-1.752.328-2.376.984c-.608.64-.912 1.504-.912 2.592s.304 1.96.912 2.616c.624.64 1.416.96 2.376.96zm24.712 2.256c-.368.272-.824.48-1.368.624a7.111 7.111 0 01-1.68.192c-1.536 0-2.728-.392-3.576-1.176-.832-.784-1.248-1.936-1.248-3.456v-5.304h-1.992v-2.88h1.992v-3.144h3.744v3.144h3.216v2.88h-3.216v5.256c0 .544.136.968.407 1.272.289.288.689.432 1.201.432.592 0 1.096-.16 1.512-.48l1.008 2.64zm14.351-5.784c0 .048-.024.384-.072 1.008h-9.768c.176.8.592 1.432 1.248 1.896.656.464 1.472.696 2.448.696.672 0 1.264-.096 1.776-.288a4.46 4.46 0 001.464-.96l1.992 2.16c-1.216 1.392-2.992 2.088-5.328 2.088-1.456 0-2.744-.28-3.864-.84-1.12-.576-1.984-1.368-2.592-2.376-.608-1.008-.912-2.152-.912-3.432 0-1.264.296-2.4.888-3.408a6.3 6.3 0 012.472-2.376c1.056-.576 2.232-.864 3.528-.864 1.264 0 2.408.272 3.432.816a5.857 5.857 0 012.4 2.352c.592 1.008.888 2.184.888 3.528zm-6.696-3.864c-.848 0-1.56.24-2.136.72-.576.48-.928 1.136-1.056 1.968h6.36c-.128-.816-.48-1.464-1.056-1.944-.576-.496-1.28-.744-2.112-.744zm9.188-7.536h3.744V70h-3.744V52.192zm19.867 11.4c0 .048-.024.384-.072 1.008h-9.768c.176.8.592 1.432 1.248 1.896.656.464 1.472.696 2.448.696.672 0 1.264-.096 1.776-.288a4.46 4.46 0 001.464-.96l1.992 2.16c-1.216 1.392-2.992 2.088-5.328 2.088-1.456 0-2.744-.28-3.864-.84-1.12-.576-1.984-1.368-2.592-2.376-.608-1.008-.912-2.152-.912-3.432 0-1.264.296-2.4.888-3.408a6.3 6.3 0 012.472-2.376c1.056-.576 2.232-.864 3.528-.864 1.264 0 2.408.272 3.432.816a5.857 5.857 0 012.4 2.352c.592 1.008.888 2.184.888 3.528zm-6.696-3.864c-.848 0-1.56.24-2.136.72-.576.48-.928 1.136-1.056 1.968h6.36c-.128-.816-.48-1.464-1.056-1.944-.576-.496-1.28-.744-2.112-.744zm13.293-2.352h3.312v2.88h-3.216V70h-3.744v-9.744h-1.992v-2.88h1.992V56.8c0-1.472.432-2.64 1.296-3.504.88-.864 2.112-1.296 3.696-1.296.56 0 1.088.064 1.584.192.512.112.936.28 1.272.504l-.984 2.712c-.432-.304-.936-.456-1.512-.456-1.136 0-1.704.624-1.704 1.872v.552zm11.157 12.816c-1.36 0-2.584-.28-3.672-.84a6.439 6.439 0 01-2.52-2.376c-.608-1.008-.912-2.152-.912-3.432 0-1.28.304-2.424.912-3.432a6.27 6.27 0 012.52-2.352c1.088-.576 2.312-.864 3.672-.864 1.36 0 2.576.288 3.648.864a6.27 6.27 0 012.52 2.352c.608 1.008.912 2.152.912 3.432 0 1.28-.304 2.424-.912 3.432a6.439 6.439 0 01-2.52 2.376c-1.072.56-2.288.84-3.648.84zm0-3.072c.96 0 1.744-.32 2.352-.96.624-.656.936-1.528.936-2.616s-.312-1.952-.936-2.592c-.608-.656-1.392-.984-2.352-.984s-1.752.328-2.376.984c-.624.64-.936 1.504-.936 2.592s.312 1.96.936 2.616c.624.64 1.416.96 2.376.96zm17.431-10.224c1.6 0 2.888.48 3.864 1.44.992.96 1.488 2.384 1.488 4.272V70h-3.744v-6.816c0-1.024-.224-1.784-.672-2.28-.448-.512-1.096-.768-1.944-.768-.944 0-1.696.296-2.256.888-.56.576-.84 1.44-.84 2.592V70h-3.744V57.088h3.576V58.6a4.847 4.847 0 011.848-1.248c.736-.304 1.544-.456 2.424-.456z"/>
  <path fill="#22577A" d="M109.384 165.2l-5.496 16.8h-4.176l-3.696-11.376L92.2 182h-4.152l-5.52-16.8h4.032l3.792 11.808 3.96-11.808h3.6l3.84 11.904 3.912-11.904h3.72zm4.99 5.592c.448-.624 1.048-1.096 1.8-1.416.768-.32 1.648-.48 2.64-.48v3.456a13.512 13.512 0 00-.84-.048c-1.072 0-1.912.304-2.52.912-.608.592-.912 1.488-.912 2.688V182h-3.744v-12.912h3.576v1.704zm17.392 8.328V182h-11.52v-2.256l6.576-7.776h-6.408v-2.88h11.136v2.256l-6.576 7.776h6.792zm15.408-10.032V182h-3.552v-1.536a5.096 5.096 0 01-1.776 1.296 5.722 5.722 0 01-2.232.432c-1.696 0-3.04-.488-4.032-1.464s-1.488-2.424-1.488-4.344v-7.296h3.744v6.744c0 2.08.872 3.12 2.616 3.12.896 0 1.616-.288 2.16-.864.544-.592.816-1.464.816-2.616v-6.384h3.744zm9.708 13.104c-1.376 0-2.616-.28-3.72-.84-1.088-.576-1.944-1.368-2.568-2.376-.608-1.008-.912-2.152-.912-3.432 0-1.28.304-2.424.912-3.432a6.4 6.4 0 012.568-2.352c1.104-.576 2.344-.864 3.72-.864 1.36 0 2.544.288 3.552.864a4.98 4.98 0 012.232 2.424l-2.904 1.56c-.672-1.184-1.64-1.776-2.904-1.776-.976 0-1.784.32-2.424.96-.64.64-.96 1.512-.96 2.616s.32 1.976.96 2.616c.64.64 1.448.96 2.424.96 1.28 0 2.248-.592 2.904-1.776l2.904 1.584c-.464 1.024-1.208 1.824-2.232 2.4-1.008.576-2.192.864-3.552.864zm.6-18.216h4.032l-4.344 3.456h-2.928l3.24-3.456zm21.769 4.92c1.2 0 2.288.28 3.264.84a5.821 5.821 0 012.328 2.328c.56.992.84 2.152.84 3.48 0 1.328-.28 2.496-.84 3.504a6.028 6.028 0 01-2.328 2.328c-.976.544-2.064.816-3.264.816-1.776 0-3.128-.56-4.056-1.68V182h-3.576v-17.808h3.744v6.264c.944-1.04 2.24-1.56 3.888-1.56zm-.648 10.224c.96 0 1.744-.32 2.352-.96.624-.656.936-1.528.936-2.616s-.312-1.952-.936-2.592c-.608-.656-1.392-.984-2.352-.984s-1.752.328-2.376.984c-.608.64-.912 1.504-.912 2.592s.304 1.96.912 2.616c.624.64 1.416.96 2.376.96zm22.594-10.032V182h-3.552v-1.536a5.096 5.096 0 01-1.776 1.296 5.722 5.722 0 01-2.232.432c-1.696 0-3.04-.488-4.032-1.464s-1.488-2.424-1.488-4.344v-7.296h3.744v6.744c0 2.08.872 3.12 2.616 3.12.896 0 1.616-.288 2.16-.864.544-.592.816-1.464.816-2.616v-6.384h3.744zm11.797 12.288c-.368.272-.824.48-1.368.624a7.111 7.111 0 01-1.68.192c-1.536 0-2.728-.392-3.576-1.176-.832-.784-1.248-1.936-1.248-3.456v-5.304h-1.992v-2.88h1.992v-3.144h3.744v3.144h3.216v2.88h-3.216v5.256c0 .544.136.968.407 1.272.289.288.689.432 1.201.432.592 0 1.096-.16 1.512-.48l1.008 2.64zm14.351-5.784c0 .048-.024.384-.072 1.008h-9.768c.176.8.592 1.432 1.248 1.896.656.464 1.472.696 2.448.696.672 0 1.264-.096 1.776-.288a4.46 4.46 0 001.464-.96l1.992 2.16c-1.216 1.392-2.992 2.088-5.328 2.088-1.456 0-2.744-.28-3.864-.84-1.12-.576-1.984-1.368-2.592-2.376-.608-1.008-.912-2.152-.912-3.432 0-1.264.296-2.4.888-3.408a6.3 6.3 0 012.472-2.376c1.056-.576 2.232-.864 3.528-.864 1.264 0 2.408.272 3.432.816a5.857 5.857 0 012.4 2.352c.592 1.008.888 2.184.888 3.528zm-6.696-3.864c-.848 0-1.56.24-2.136.72-.576.48-.928 1.136-1.056 1.968h6.36c-.128-.816-.48-1.464-1.056-1.944-.576-.496-1.28-.744-2.112-.744zm9.188-7.536h3.744V182h-3.744v-17.808zm12.763 12.744l-1.8 1.776V182h-3.744v-17.808h3.744v10.08l5.472-5.184h4.464l-5.376 5.472 5.856 7.44h-4.536l-4.08-5.064zm10.206-7.848h3.744V182h-3.744v-12.912zm1.872-1.8c-.688 0-1.248-.2-1.68-.6a1.946 1.946 0 01-.648-1.488c0-.592.216-1.088.648-1.488.432-.4.992-.6 1.68-.6s1.248.192 1.68.576c.432.384.648.864.648 1.44 0 .624-.216 1.144-.648 1.56-.432.4-.992.6-1.68.6zM133.128 295.288c-1.744 0-3.32-.376-4.728-1.128-1.392-.752-2.488-1.784-3.288-3.096-.784-1.328-1.176-2.816-1.176-4.464 0-1.648.392-3.128 1.176-4.44a8.452 8.452 0 013.288-3.12c1.408-.752 2.984-1.128 4.728-1.128 1.744 0 3.312.376 4.704 1.128a8.452 8.452 0 013.288 3.12c.8 1.312 1.2 2.792 1.2 4.44 0 1.648-.4 3.136-1.2 4.464-.8 1.312-1.896 2.344-3.288 3.096-1.392.752-2.96 1.128-4.704 1.128zm0-3.312c.992 0 1.888-.224 2.688-.672a4.909 4.909 0 001.872-1.92c.464-.816.696-1.744.696-2.784 0-1.04-.232-1.968-.696-2.784a4.744 4.744 0 00-1.872-1.896c-.8-.464-1.696-.696-2.688-.696-.992 0-1.888.232-2.688.696a4.907 4.907 0 00-1.896 1.896c-.448.816-.672 1.744-.672 2.784 0 1.04.224 1.968.672 2.784a5.08 5.08 0 001.896 1.92c.8.448 1.696.672 2.688.672zm25.002-14.784V295h-3.576v-1.488c-.928 1.12-2.272 1.68-4.032 1.68-1.216 0-2.32-.272-3.312-.816a5.865 5.865 0 01-2.304-2.328c-.56-1.008-.84-2.176-.84-3.504 0-1.328.28-2.496.84-3.504a5.865 5.865 0 012.304-2.328c.992-.544 2.096-.816 3.312-.816 1.648 0 2.936.52 3.864 1.56v-6.264h3.744zm-6.96 14.928c.944 0 1.728-.32 2.352-.96.624-.656.936-1.528.936-2.616s-.312-1.952-.936-2.592c-.624-.656-1.408-.984-2.352-.984-.96 0-1.752.328-2.376.984-.624.64-.936 1.504-.936 2.592s.312 1.96.936 2.616c.624.64 1.416.96 2.376.96zm18.057-10.224c1.2 0 2.288.28 3.264.84a5.821 5.821 0 012.328 2.328c.56.992.84 2.152.84 3.48 0 1.328-.28 2.496-.84 3.504a6.028 6.028 0 01-2.328 2.328c-.976.544-2.064.816-3.264.816-1.776 0-3.128-.56-4.056-1.68V295h-3.576v-17.808h3.744v6.264c.944-1.04 2.24-1.56 3.888-1.56zm-.648 10.224c.96 0 1.744-.32 2.352-.96.624-.656.936-1.528.936-2.616s-.312-1.952-.936-2.592c-.608-.656-1.392-.984-2.352-.984s-1.752.328-2.376.984c-.608.64-.912 1.504-.912 2.592s.304 1.96.912 2.616c.624.64 1.416.96 2.376.96zm9.587-10.032h3.744V295h-3.744v-12.912zm1.872-1.8c-.688 0-1.248-.2-1.68-.6a1.946 1.946 0 01-.648-1.488c0-.592.216-1.088.648-1.488.432-.4.992-.6 1.68-.6s1.248.192 1.68.576c.432.384.648.864.648 1.44 0 .624-.216 1.144-.648 1.56-.432.4-.992.6-1.68.6zm17.994 8.304c0 .048-.024.384-.072 1.008h-9.768c.176.8.592 1.432 1.248 1.896.656.464 1.472.696 2.448.696.672 0 1.264-.096 1.776-.288a4.46 4.46 0 001.464-.96l1.992 2.16c-1.216 1.392-2.992 2.088-5.328 2.088-1.456 0-2.744-.28-3.864-.84-1.12-.576-1.984-1.368-2.592-2.376-.608-1.008-.912-2.152-.912-3.432 0-1.264.296-2.4.888-3.408a6.3 6.3 0 012.472-2.376c1.056-.576 2.232-.864 3.528-.864 1.264 0 2.408.272 3.432.816a5.857 5.857 0 012.4 2.352c.592 1.008.888 2.184.888 3.528zm-6.696-3.864c-.848 0-1.56.24-2.136.72-.576.48-.928 1.136-1.056 1.968h6.36c-.128-.816-.48-1.464-1.056-1.944-.576-.496-1.28-.744-2.112-.744zm12.765-.936c.448-.624 1.048-1.096 1.8-1.416.768-.32 1.648-.48 2.64-.48v3.456a13.512 13.512 0 00-.84-.048c-1.072 0-1.912.304-2.52.912-.608.592-.912 1.488-.912 2.688V295h-3.744v-12.912h3.576v1.704zm17.392 8.328V295h-11.52v-2.256l6.576-7.776h-6.408v-2.88h11.136v2.256l-6.576 7.776h6.792zm20.164 2.88l-3.24-4.68h-3.576V295h-3.888v-16.8h7.272c1.488 0 2.776.248 3.864.744 1.104.496 1.952 1.2 2.544 2.112.592.912.888 1.992.888 3.24 0 1.248-.304 2.328-.912 3.24-.592.896-1.44 1.584-2.544 2.064l3.768 5.4h-4.176zm-.072-10.704c0-.944-.304-1.664-.912-2.16-.608-.512-1.496-.768-2.664-.768h-3.168v5.856h3.168c1.168 0 2.056-.256 2.664-.768.608-.512.912-1.232.912-2.16zm19.4 4.296c0 .048-.024.384-.072 1.008h-9.768c.176.8.592 1.432 1.248 1.896.656.464 1.472.696 2.448.696.672 0 1.264-.096 1.776-.288a4.46 4.46 0 001.464-.96l1.992 2.16c-1.216 1.392-2.992 2.088-5.328 2.088-1.456 0-2.744-.28-3.864-.84-1.12-.576-1.984-1.368-2.592-2.376-.608-1.008-.912-2.152-.912-3.432 0-1.264.296-2.4.888-3.408a6.3 6.3 0 012.472-2.376c1.056-.576 2.232-.864 3.528-.864 1.264 0 2.408.272 3.432.816a5.857 5.857 0 012.4 2.352c.592 1.008.888 2.184.888 3.528zm-6.696-3.864c-.848 0-1.56.24-2.136.72-.576.48-.928 1.136-1.056 1.968h6.36c-.128-.816-.48-1.464-1.056-1.944-.576-.496-1.28-.744-2.112-.744zm15.429 10.464c-1.376 0-2.616-.28-3.72-.84-1.088-.576-1.944-1.368-2.568-2.376-.608-1.008-.912-2.152-.912-3.432 0-1.28.304-2.424.912-3.432a6.4 6.4 0 012.568-2.352c1.104-.576 2.344-.864 3.72-.864 1.36 0 2.544.288 3.552.864a4.98 4.98 0 012.232 2.424l-2.904 1.56c-.672-1.184-1.64-1.776-2.904-1.776-.976 0-1.784.32-2.424.96-.64.64-.96 1.512-.96 2.616s.32 1.976.96 2.616c.64.64 1.448.96 2.424.96 1.28 0 2.248-.592 2.904-1.776l2.904 1.584c-.464 1.024-1.208 1.824-2.232 2.4-1.008.576-2.192.864-3.552.864zm20.568-13.104l-5.832 13.704c-.592 1.488-1.328 2.536-2.208 3.144-.864.608-1.912.912-3.144.912a6.555 6.555 0 01-1.992-.312c-.656-.208-1.192-.496-1.608-.864l1.368-2.664c.288.256.616.456.984.6a3.2 3.2 0 001.128.216c.512 0 .928-.128 1.248-.384.32-.24.608-.648.864-1.224l.048-.12-5.592-13.008h3.864l3.624 8.76 3.648-8.76h3.6zm9.738 13.2c-1.712 0-3.264-.368-4.656-1.104a8.555 8.555 0 01-3.264-3.096c-.784-1.328-1.176-2.824-1.176-4.488 0-1.664.392-3.152 1.176-4.464a8.323 8.323 0 013.264-3.096c1.392-.752 2.952-1.128 4.68-1.128 1.456 0 2.768.256 3.936.768a7.886 7.886 0 012.976 2.208l-2.496 2.304c-1.136-1.312-2.544-1.968-4.224-1.968-1.04 0-1.968.232-2.784.696a4.862 4.862 0 00-1.92 1.896c-.448.816-.672 1.744-.672 2.784 0 1.04.224 1.968.672 2.784a5.03 5.03 0 001.92 1.92c.816.448 1.744.672 2.784.672 1.68 0 3.088-.664 4.224-1.992l2.496 2.304a7.78 7.78 0 01-2.976 2.232c-1.184.512-2.504.768-3.96.768zm14.996-.096c-1.36 0-2.584-.28-3.672-.84a6.439 6.439 0 01-2.52-2.376c-.608-1.008-.912-2.152-.912-3.432 0-1.28.304-2.424.912-3.432a6.27 6.27 0 012.52-2.352c1.088-.576 2.312-.864 3.672-.864 1.36 0 2.576.288 3.648.864a6.27 6.27 0 012.52 2.352c.608 1.008.912 2.152.912 3.432 0 1.28-.304 2.424-.912 3.432a6.439 6.439 0 01-2.52 2.376c-1.072.56-2.288.84-3.648.84zm0-3.072c.96 0 1.744-.32 2.352-.96.624-.656.936-1.528.936-2.616s-.312-1.952-.936-2.592c-.608-.656-1.392-.984-2.352-.984s-1.752.328-2.376.984c-.624.64-.936 1.504-.936 2.592s.312 1.96.936 2.616c.624.64 1.416.96 2.376.96zm9.583-10.032h3.744V295h-3.744v-12.912zm1.872-1.8c-.688 0-1.248-.2-1.68-.6a1.946 1.946 0 01-.648-1.488c0-.592.216-1.088.648-1.488.432-.4.992-.6 1.68-.6s1.248.192 1.68.576c.432.384.648.864.648 1.44 0 .624-.216 1.144-.648 1.56-.432.4-.992.6-1.68.6zm13.195 1.608c1.6 0 2.888.48 3.864 1.44.992.96 1.488 2.384 1.488 4.272V295h-3.744v-6.816c0-1.024-.224-1.784-.672-2.28-.448-.512-1.096-.768-1.944-.768-.944 0-1.696.296-2.256.888-.56.576-.84 1.44-.84 2.592V295h-3.744v-12.912h3.576v1.512a4.847 4.847 0 011.848-1.248c.736-.304 1.544-.456 2.424-.456zm21.327.192l-5.832 13.704c-.592 1.488-1.328 2.536-2.208 3.144-.864.608-1.912.912-3.144.912a6.555 6.555 0 01-1.992-.312c-.656-.208-1.192-.496-1.608-.864l1.368-2.664c.288.256.616.456.984.6a3.2 3.2 0 001.128.216c.512 0 .928-.128 1.248-.384.32-.24.608-.648.864-1.224l.048-.12-5.592-13.008h3.864l3.624 8.76 3.648-8.76h3.6z"/>
  <path stroke="#000" stroke-linecap="round" stroke-linejoin="round" stroke-width="4" d="M280 54c62.465 11.259 166.037 44.421 80.607 87"/>
  <path fill="#000" d="M35.84 270.765a1.5 1.5 0 00.833-1.951l-5.034-12.526a1.5 1.5 0 10-2.784 1.118l4.475 11.135-11.135 4.474a1.5 1.5 0 001.12 2.784l12.525-5.034zm-18.429-7.385l17.281 7.373 1.178-2.759-17.281-7.374-1.178 2.76z"/>
  <path stroke="#000" stroke-linecap="round" stroke-linejoin="round" stroke-width="4" d="M63.223 182c-37.07 19.04-95.575 62.572-33.029 84.382"/>
  <defs>
    <linearGradient id="paint0_linear" x1="58.209" x2="174.947" y1="0" y2="98.613" gradientUnits="userSpaceOnUse">
      <stop stop-color="#22577A"/>
      <stop offset="1" stop-color="#38A3A5" stop-opacity="0"/>
    </linearGradient>
    <linearGradient id="paint1_linear" x1="308.845" x2="423.884" y1="111" y2="238.518" gradientUnits="userSpaceOnUse">
      <stop stop-color="#22577A"/>
      <stop offset="1" stop-color="#38A3A5" stop-opacity="0"/>
    </linearGradient>
    <linearGradient id="paint2_linear" x1="95.136" x2="206.493" y1="227" y2="332.501" gradientUnits="userSpaceOnUse">
      <stop stop-color="#22577A"/>
      <stop offset="1" stop-color="#38A3A5" stop-opacity="0"/>
    </linearGradient>
    <radialGradient id="paint3_radial" cx="0" cy="0" r="1" gradientTransform="matrix(0 29 -86 0 178 47)" gradientUnits="userSpaceOnUse">
      <stop stop-color="#22577A"/>
      <stop offset="1" stop-color="#22577A"/>
    </radialGradient>
  </defs>
</svg>
